<svg xmlns="http://www.w3.org/2000/svg" xmlns:xlink="http://www.w3.org/1999/xlink" width="1280" zoomAndPan="magnify" viewBox="0 0 960 239.999995" height="320" preserveAspectRatio="xMidYMid meet" version="1.0"><defs><g/><clipPath id="id1"><path d="M 24 16.296875 L 279 16.296875 L 279 224.046875 L 24 224.046875 Z M 24 16.296875 " clip-rule="nonzero"/></clipPath><clipPath id="id2"><path d="M 71 113 L 232 113 L 232 224.046875 L 71 224.046875 Z M 71 113 " clip-rule="nonzero"/></clipPath></defs><g clip-path="url(#id1)"><path fill="#e43030" d="M 24 80.222656 L 151.5 144.144531 L 263.0625 88.210938 L 263.0625 224.046875 L 279 224.046875 L 279 80.222656 L 151.5 16.300781 Z M 24 80.222656 " fill-opacity="1" fill-rule="nonzero"/></g><g clip-path="url(#id2)"><path fill="#e43030" d="M 71.8125 113.125 L 71.8125 184.097656 L 151.5 224.046875 L 231.1875 184.097656 L 231.1875 113.125 L 151.5 153.078125 Z M 71.8125 113.125 " fill-opacity="1" fill-rule="nonzero"/></g><g fill="#000000" fill-opacity="1"><g transform="translate(289.757804, 184.008064)"><g><path d="M 6.40625 0 L 6.40625 -112.046875 L 18.890625 -112.046875 L 18.890625 -11.359375 L 50.90625 -11.359375 L 50.90625 0 Z M 6.40625 0 "/></g></g></g><g fill="#000000" fill-opacity="1"><g transform="translate(343.70414, 184.008064)"><g><path d="M 46.265625 -62.4375 L 46.265625 -51.21875 L 18.890625 -51.21875 L 18.890625 -11.359375 L 52.5 -11.359375 L 52.5 0 L 6.40625 0 L 6.40625 -112.046875 L 52.5 -112.046875 L 52.5 -100.6875 L 18.890625 -100.6875 L 18.890625 -62.4375 Z M 46.265625 -62.4375 "/></g></g></g><g fill="#000000" fill-opacity="1"><g transform="translate(401.332279, 184.008064)"><g><path d="M 19.046875 -22.578125 L 14.734375 0 L 3.203125 0 L 24.65625 -112.046875 L 42.734375 -112.046875 L 64.1875 0 L 51.703125 0 L 47.390625 -22.578125 Z M 20.65625 -33.296875 L 45.625 -33.296875 L 32.96875 -97.96875 Z M 20.65625 -33.296875 "/></g></g></g><g fill="#000000" fill-opacity="1"><g transform="translate(468.885261, 184.008064)"><g><path d="M 31.375 -112.046875 C 40.226562 -112.046875 46.601562 -109.859375 50.5 -105.484375 C 54.394531 -101.109375 56.34375 -94.757812 56.34375 -86.4375 L 56.34375 -77.3125 C 56.34375 -71.125 55.222656 -66.109375 52.984375 -62.265625 C 50.742188 -58.421875 47.222656 -55.753906 42.421875 -54.265625 C 47.546875 -52.773438 51.171875 -50.023438 53.296875 -46.015625 C 55.429688 -42.015625 56.5 -36.972656 56.5 -30.890625 L 56.5 -13.453125 C 56.5 -10.992188 56.601562 -8.613281 56.8125 -6.3125 C 57.03125 -4.019531 57.675781 -1.914062 58.75 0 L 46.109375 0 C 45.359375 -1.601562 44.820312 -3.335938 44.5 -5.203125 C 44.175781 -7.066406 44.015625 -9.867188 44.015625 -13.609375 L 44.015625 -31.21875 C 44.015625 -37.507812 42.597656 -41.851562 39.765625 -44.25 C 36.941406 -46.65625 32.914062 -47.859375 27.6875 -47.859375 L 18.890625 -47.859375 L 18.890625 0 L 6.40625 0 L 6.40625 -112.046875 Z M 28.171875 -59.234375 C 33.191406 -59.234375 37.085938 -60.269531 39.859375 -62.34375 C 42.628906 -64.425781 44.015625 -68.507812 44.015625 -74.59375 L 44.015625 -85.328125 C 44.015625 -90.441406 43.023438 -94.28125 41.046875 -96.84375 C 39.078125 -99.40625 35.75 -100.6875 31.0625 -100.6875 L 18.890625 -100.6875 L 18.890625 -59.234375 Z M 28.171875 -59.234375 "/></g></g></g><g fill="#000000" fill-opacity="1"><g transform="translate(531.956062, 184.008064)"><g><path d="M 17.453125 0 L 6.25 0 L 6.25 -112.046875 L 22.09375 -112.046875 L 48.015625 -31.0625 L 48.015625 -112.046875 L 59.0625 -112.046875 L 59.0625 0 L 46.109375 0 L 17.453125 -90.609375 Z M 17.453125 0 "/></g></g></g><g fill="#000000" fill-opacity="1"><g transform="translate(597.428027, 184.008064)"><g/></g></g><g fill="#000000" fill-opacity="1"><g transform="translate(622.240144, 184.008064)"><g><path d="M 19.046875 -22.578125 L 14.734375 0 L 3.203125 0 L 24.65625 -112.046875 L 42.734375 -112.046875 L 64.1875 0 L 51.703125 0 L 47.390625 -22.578125 Z M 20.65625 -33.296875 L 45.625 -33.296875 L 32.96875 -97.96875 Z M 20.65625 -33.296875 "/></g></g></g><g fill="#000000" fill-opacity="1"><g transform="translate(689.793149, 184.008064)"><g><path d="M 6.40625 0 L 6.40625 -112.046875 L 18.890625 -112.046875 L 18.890625 -11.359375 L 50.90625 -11.359375 L 50.90625 0 Z M 6.40625 0 "/></g></g></g><g fill="#000000" fill-opacity="1"><g transform="translate(743.739496, 184.008064)"><g><path d="M 30.890625 -112.046875 C 39.753906 -112.046875 46.160156 -109.617188 50.109375 -104.765625 C 54.054688 -99.910156 56.03125 -93.21875 56.03125 -84.6875 L 56.03125 -71.234375 C 56.03125 -62.265625 53.921875 -55.515625 49.703125 -50.984375 C 45.484375 -46.453125 38.894531 -44.1875 29.9375 -44.1875 L 18.890625 -44.1875 L 18.890625 0 L 6.40625 0 L 6.40625 -112.046875 Z M 29.9375 -55.390625 C 34.632812 -55.390625 38.101562 -56.535156 40.34375 -58.828125 C 42.582031 -61.117188 43.703125 -64.988281 43.703125 -70.4375 L 43.703125 -85.328125 C 43.703125 -90.441406 42.710938 -94.28125 40.734375 -96.84375 C 38.765625 -99.40625 35.484375 -100.6875 30.890625 -100.6875 L 18.890625 -100.6875 L 18.890625 -55.390625 Z M 29.9375 -55.390625 "/></g></g></g><g fill="#000000" fill-opacity="1"><g transform="translate(803.128469, 184.008064)"><g><path d="M 18.890625 -50.421875 L 18.890625 0 L 6.40625 0 L 6.40625 -112.046875 L 18.890625 -112.046875 L 18.890625 -61.625 L 46.421875 -61.625 L 46.421875 -112.046875 L 58.90625 -112.046875 L 58.90625 0 L 46.421875 0 L 46.421875 -50.421875 Z M 18.890625 -50.421875 "/></g></g></g><g fill="#000000" fill-opacity="1"><g transform="translate(868.440355, 184.008064)"><g><path d="M 19.046875 -22.578125 L 14.734375 0 L 3.203125 0 L 24.65625 -112.046875 L 42.734375 -112.046875 L 64.1875 0 L 51.703125 0 L 47.390625 -22.578125 Z M 20.65625 -33.296875 L 45.625 -33.296875 L 32.96875 -97.96875 Z M 20.65625 -33.296875 "/></g></g></g></svg>